<svg height="1480" version="1.1" width="1050" xmlns="http://www.w3.org/2000/svg" id="myRect1"><desc>Created with Snap</desc><defs></defs><text x="100" y="72" id="basis" font-size="24px" font-family="Tahoma" font-weight="bold">Enter the name of the Rhythm</text><circle cx="51" cy="208" r="7" id="basis" transform="matrix(1,0,0,1,52,1166)"/><rect x="45" y="222" width="12" height="12" id="basis" transform="matrix(1,0,0,1,129,1146)"/><g id="basis" transform="matrix(1,0,0,1,201,1126)" xmlns="http://www.w3.org/2000/svg"><line x1="45" x2="57" y1="254" y2="242" stroke="#000000" style="stroke-width: 2px;"></line><line x1="45" x2="57" y1="242" y2="254" stroke="#000000" style="stroke-width: 2px;"></line><rect x="45" y="242" width="12" height="12" style="opacity: 0.001;"></rect></g><g id="basis" transform="matrix(1,0,0,1,324,1106)" xmlns="http://www.w3.org/2000/svg"><circle cx="54" cy="269" r="6" fill="#ffffff" stroke="#000000" style="stroke-width: 2px;"></circle><circle cx="48" cy="269" r="6" fill="#000000" stroke="#000000" style="stroke-width: 2px;"></circle></g><g id="basis" transform="matrix(1,0,0,1,467,1086)" xmlns="http://www.w3.org/2000/svg"><rect x="42" y="283" width="20" height="12" style="opacity: 0.001;"></rect><line x1="42" x2="54" y1="295" y2="283" stroke="#000000" style="stroke-width: 2px;"></line><line x1="42" x2="54" y1="283" y2="295" stroke="#000000" style="stroke-width: 2px;"></line><line x1="48" x2="60" y1="295" y2="283" stroke="#000000" style="stroke-width: 2px;"></line><line x1="48" x2="60" y1="283" y2="295" stroke="#000000" style="stroke-width: 2px;"></line></g><g fill="#ffffff" stroke="#000000" style="stroke-width: 2px;" id="basis" transform="matrix(1,0,0,1,612,1066)" xmlns="http://www.w3.org/2000/svg"><rect x="42" y="290" width="12" height="12" style="opacity: 0.001;"></rect><rect x="43" y="302" width="12" height="12"></rect><line x1="48" x2="60" y1="314" y2="302" stroke="#000000" style="stroke-width: 2px;"></line><line x1="48" x2="60" y1="302" y2="314" stroke="#000000" style="stroke-width: 2px;"></line></g><g id="basis" transform="matrix(1,0,0,1,52,1078)" xmlns="http://www.w3.org/2000/svg"><circle cx="51" cy="208" r="7" transform="matrix(1,0,0,1,0,119)"></circle><line x1="44" x2="59" y1="337" y2="337" stroke="#000000" style="stroke-width: 2px;"></line><rect x="45" y="320" width="12" height="14" style="opacity: 0.001;"></rect></g><g id="basis" transform="matrix(1,0,0,1,212,1055)" xmlns="http://www.w3.org/2000/svg"><line x1="45" x2="57" y1="354" y2="342" stroke="#000000" style="stroke-width: 2px;"></line><line x1="45" x2="57" y1="342" y2="354" stroke="#000000" style="stroke-width: 2px;"></line><line x1="44" x2="59" y1="357" y2="357" stroke="#000000" style="stroke-width: 2px;"></line><rect x="45" y="342" width="12" height="14" style="opacity: 0.001;"></rect></g><g id="basis" transform="matrix(1,0,0,1,367,1033)" xmlns="http://www.w3.org/2000/svg"><line x1="51" x2="51" y1="363" y2="375" stroke="#000000" style="stroke-width: 3px;"></line><polygon points="45,375,51,382,57,375"></polygon><rect x="45" y="363" width="12" height="20" style="opacity: 0.001;"></rect></g><g id="basis" transform="matrix(1,0,0,1,412,1010)" xmlns="http://www.w3.org/2000/svg"><line x1="51" x2="51" y1="392" y2="404" stroke="#000000" style="stroke-width: 3px;"></line><polygon points="45,392,51,385,57,392"></polygon><rect x="45" y="384" width="12" height="20" style="opacity: 0.001;"></rect></g><g id="basis" transform="matrix(1,0,0,1,470,960)" xmlns="http://www.w3.org/2000/svg"><rect x="46" y="430" width="10" height="20" style="opacity: 0.001;"></rect><circle cx="51" cy="435" r="2.5"></circle><circle cx="51" cy="443" r="2.5"></circle><text x="51" y="459" id="textSlgfj02sq2t" font-size: 12px; font-family="Tahoma" font-weight="bold" text-anchor: middle;"> </text></g><text x="117" y="1380" id="basis" font-size="15px" font-family="Tahoma">Tone</text><text x="195" y="1380" id="basis" font-size="15px" font-family="Tahoma">Bass</text><text x="265" y="1380" id="basis" font-size="15px" font-family="Tahoma">Slap/Glocke</text><text x="393" y="1380" id="basis" font-size="15px" font-family="Tahoma">Flam mit Tones</text><text x="535" y="1380" id="basis" font-size="15px" font-family="Tahoma">Flam mit Slaps</text><text x="680" y="1380" id="basis" font-size="15px" font-family="Tahoma">Flam mit Bass und Slaps</text><text x="120" y="1410" id="basis" font-size="15px" font-family="Tahoma">gedämpfter Tone</text><text x="280" y="1410" id="basis" font-size="15px" font-family="Tahoma">gedämpfter Slap</text><text x="430" y="1410" id="basis" font-size="15px" font-family="Tahoma">In</text><text x="475" y="1410" id="basis" font-size="15px" font-family="Tahoma">Out</text><text x="530" y="1410" id="basis" font-size="15px" font-family="Tahoma">Wiederholung</text><text x="51" y="459" id="basis" font-size: 12px; font-family="Tahoma" font-weight="bold" text-anchor: middle;"> </text></svg>